
<svg class="image-card" version="1.0" xmlns="http://www.w3.org/2000/svg"
 width="1280.000000pt" height="1248.000000pt" viewBox="640 620 1280 1240"
 preserveAspectRatio="xMidYMid meet">
    <g transform="translate(0.000000,1248.000000) scale(0.100000,-0.100000)"
    fill="#000000" stroke="none">
        <path d="M9809 5485 c-268 -51 -499 -175 -699 -375 -266 -265 -410 -601 -410
        -955 0 -66 7 -160 16 -210 18 -106 80 -297 123 -384 17 -33 31 -63 31 -66 0
        -3 -24 -5 -52 -5 -175 0 -442 -84 -631 -197 -96 -58 -245 -182 -307 -254 -157
        -185 -271 -423 -316 -655 -24 -127 -22 -357 4 -489 87 -435 345 -774 739 -970
        175 -87 323 -124 533 -132 120 -4 166 -2 268 16 131 22 261 62 361 109 34 16
        61 25 61 20 0 -17 -63 -134 -118 -218 -97 -150 -172 -214 -512 -439 l-305
        -201 1459 0 c848 0 1456 4 1450 9 -5 5 -143 97 -306 204 -318 209 -382 263
        -478 398 -51 73 -149 254 -133 248 4 -2 56 -23 114 -46 462 -184 985 -112
        1361 187 193 154 378 420 448 646 45 148 54 212 54 399 1 200 -16 304 -76 474
        -88 249 -256 479 -462 633 -184 137 -462 239 -693 255 l-92 6 31 60 c39 79 93
        243 114 354 24 122 24 386 1 506 -39 196 -119 380 -229 528 -76 102 -246 263
        -349 332 -143 94 -308 164 -482 202 -103 23 -418 29 -518 10z"/>
    </g>
</svg>
