
<svg class="image-card" version="1.0" xmlns="http://www.w3.org/2000/svg"
 width="1280.000000pt" height="1248.000000pt" viewBox="100 620 1 1248.000000"
 preserveAspectRatio="xMidYMid meet">
<metadata>
Created by potrace 1.15, written by Peter Selinger 2001-2017
</metadata>
<g transform="translate(0.000000,1248.000000) scale(0.100000,-0.100000)"
fill="red" stroke="none">
<path d="M1738 11138 c-581 -739 -1071 -1368 -1090 -1398 -140 -220 -211 -466
-211 -735 0 -362 128 -682 376 -942 199 -208 434 -339 720 -400 62 -14 128
-18 267 -18 170 0 194 2 298 28 63 16 116 27 118 24 8 -8 -62 -118 -130 -202
-83 -105 -147 -156 -466 -371 l-265 -179 723 -3 c398 -1 1045 -1 1438 0 l715
3 -283 190 c-326 218 -422 303 -527 465 -34 52 -58 96 -53 98 5 1 55 -9 113
-24 80 -20 139 -27 254 -31 245 -9 434 31 650 136 325 159 569 435 688 777 56
163 71 256 72 449 0 192 -15 283 -72 450 -42 122 -100 235 -169 331 -29 40
-515 661 -1080 1381 -565 719 -1028 1309 -1029 1311 -1 1 -477 -602 -1057
-1340z"/>
<path d="M8762 12350 c-311 -44 -623 -208 -895 -470 -191 -183 -302 -332 -397
-532 -196 -413 -207 -883 -32 -1398 137 -403 425 -889 791 -1335 258 -316 749
-824 1066 -1105 252 -223 566 -480 733 -598 l30 -22 84 62 c524 388 1177 998
1618 1513 881 1029 1207 1946 959 2700 -177 536 -689 1015 -1229 1149 -456
112 -943 -13 -1362 -350 l-68 -55 -91 71 c-226 174 -460 289 -709 347 -82 19
-141 25 -270 28 -91 2 -193 0 -228 -5z"/>
<path d="M1392 4187 l-1392 -1392 1397 -1398 1398 -1397 1395 1395 1395 1395
-1395 1395 c-767 767 -1397 1395 -1400 1395 -3 0 -632 -627 -1398 -1393z"/>
<path d="M9809 5485 c-268 -51 -499 -175 -699 -375 -266 -265 -410 -601 -410
-955 0 -66 7 -160 16 -210 18 -106 80 -297 123 -384 17 -33 31 -63 31 -66 0
-3 -24 -5 -52 -5 -175 0 -442 -84 -631 -197 -96 -58 -245 -182 -307 -254 -157
-185 -271 -423 -316 -655 -24 -127 -22 -357 4 -489 87 -435 345 -774 739 -970
175 -87 323 -124 533 -132 120 -4 166 -2 268 16 131 22 261 62 361 109 34 16
61 25 61 20 0 -17 -63 -134 -118 -218 -97 -150 -172 -214 -512 -439 l-305
-201 1459 0 c848 0 1456 4 1450 9 -5 5 -143 97 -306 204 -318 209 -382 263
-478 398 -51 73 -149 254 -133 248 4 -2 56 -23 114 -46 462 -184 985 -112
1361 187 193 154 378 420 448 646 45 148 54 212 54 399 1 200 -16 304 -76 474
-88 249 -256 479 -462 633 -184 137 -462 239 -693 255 l-92 6 31 60 c39 79 93
243 114 354 24 122 24 386 1 506 -39 196 -119 380 -229 528 -76 102 -246 263
-349 332 -143 94 -308 164 -482 202 -103 23 -418 29 -518 10z"/>
</g>
</svg>
