
<svg class="image-card" version="1.0" xmlns="http://www.w3.org/2000/svg"
 width="1280.000000pt" height="1248.000000pt" viewBox="640 150 1280 620"
 preserveAspectRatio="xMidYMid meet">
<metadata>
Created by potrace 1.15, written by Peter Selinger 2001-2017
</metadata>
<g transform="translate(0.000000,1248.000000) scale(0.100000,-0.100000)"
fill="red" stroke="none">
<path d="M8762 12350 c-311 -44 -623 -208 -895 -470 -191 -183 -302 -332 -397
-532 -196 -413 -207 -883 -32 -1398 137 -403 425 -889 791 -1335 258 -316 749
-824 1066 -1105 252 -223 566 -480 733 -598 l30 -22 84 62 c524 388 1177 998
1618 1513 881 1029 1207 1946 959 2700 -177 536 -689 1015 -1229 1149 -456
112 -943 -13 -1362 -350 l-68 -55 -91 71 c-226 174 -460 289 -709 347 -82 19
-141 25 -270 28 -91 2 -193 0 -228 -5z"/>
</g>
</svg>
