
<svg class="image-card" version="1.0" xmlns="http://www.w3.org/2000/svg"
 width="1280.000000pt" height="1248.000000pt" viewBox="0 0 640 620"
 preserveAspectRatio="xMidYMid meet">
    <g transform="translate(0.000000,1248.000000) scale(0.100000,-0.100000)"
    fill="#000000" stroke="none">
        <path d="M1738 11138 c-581 -739 -1071 -1368 -1090 -1398 -140 -220 -211 -466
        -211 -735 0 -362 128 -682 376 -942 199 -208 434 -339 720 -400 62 -14 128
        -18 267 -18 170 0 194 2 298 28 63 16 116 27 118 24 8 -8 -62 -118 -130 -202
        -83 -105 -147 -156 -466 -371 l-265 -179 723 -3 c398 -1 1045 -1 1438 0 l715
        3 -283 190 c-326 218 -422 303 -527 465 -34 52 -58 96 -53 98 5 1 55 -9 113
        -24 80 -20 139 -27 254 -31 245 -9 434 31 650 136 325 159 569 435 688 777 56
        163 71 256 72 449 0 192 -15 283 -72 450 -42 122 -100 235 -169 331 -29 40
        -515 661 -1080 1381 -565 719 -1028 1309 -1029 1311 -1 1 -477 -602 -1057
        -1340z"/>
    </g>
</svg>
