<svg version="1.1" class="back" xmlns="http://www.w3.org/2000/svg" xmlns:xlink="http://www.w3.org/1999/xlink" 
	 width="800px" height="800px" viewBox="35 -19 55.541 108.541"
	 xml:space="preserve">
	<g>
		<g>
			<path 
				fill="white"
				d="M70.576,0h-52.61c-1.821,0-3.297,1.477-3.297,3.297v81.947c0,1.82,1.476,3.297,3.297,3.297h52.609
				c1.82,0,3.297-1.477,3.297-3.297V3.297C73.873,1.477,72.397,0,70.576,0z M67.278,81.947H21.263V6.595h46.015V81.947z"
			/>
            <path
				fill="none"
				stroke="black"
    			stroke-width="0.2"
				d="M70.576,0h-52.61c-1.821,0-3.297,1.477-3.297,3.297v81.947c0,1.82,1.476,3.297,3.297,3.297h52.609
				c1.82,0,3.297-1.477,3.297-3.297V3.297C73.873,1.477,72.397,0,70.576,0z "
			/>
			<path
				fill="rgb(221, 81, 81)"
				d="M67.278,81.947H21.263V6.595h46.015V81.947z"
			/>
			<polygon
				fill="rgb(145, 75, 75)"
				points="56.462,44.271 44.271,26.479 32.08,44.271 44.271,62.062"
			/>
		</g>
        <g style="transform: translate(1px, -1px);">
			<path 
				fill="white"
				d="M70.576,0h-52.61c-1.821,0-3.297,1.477-3.297,3.297v81.947c0,1.82,1.476,3.297,3.297,3.297h52.609
				c1.82,0,3.297-1.477,3.297-3.297V3.297C73.873,1.477,72.397,0,70.576,0z M67.278,81.947H21.263V6.595h46.015V81.947z"
			/>
            <path
				fill="none"
				stroke="black"
    			stroke-width="0.2"
				d="M70.576,0h-52.61c-1.821,0-3.297,1.477-3.297,3.297v81.947c0,1.82,1.476,3.297,3.297,3.297h52.609
				c1.82,0,3.297-1.477,3.297-3.297V3.297C73.873,1.477,72.397,0,70.576,0z "
			/>
			<path
				fill="rgb(221, 81, 81)"
				d="M67.278,81.947H21.263V6.595h46.015V81.947z"
			/>
			<polygon
				fill="rgb(145, 75, 75)"
				points="56.462,44.271 44.271,26.479 32.08,44.271 44.271,62.062"
			/>
		</g>
        <g style="transform: translate(2px, -1px);">
			<path 
				fill="white"
				d="M70.576,0h-52.61c-1.821,0-3.297,1.477-3.297,3.297v81.947c0,1.82,1.476,3.297,3.297,3.297h52.609
				c1.82,0,3.297-1.477,3.297-3.297V3.297C73.873,1.477,72.397,0,70.576,0z M67.278,81.947H21.263V6.595h46.015V81.947z"
			/>
            <path
				fill="none"
				stroke="black"
    			stroke-width="0.2"
				d="M70.576,0h-52.61c-1.821,0-3.297,1.477-3.297,3.297v81.947c0,1.82,1.476,3.297,3.297,3.297h52.609
				c1.82,0,3.297-1.477,3.297-3.297V3.297C73.873,1.477,72.397,0,70.576,0z "
			/>
			<path
				fill="rgb(221, 81, 81)"
				d="M67.278,81.947H21.263V6.595h46.015V81.947z"
			/>
			<polygon
				fill="rgb(145, 75, 75)"
				points="56.462,44.271 44.271,26.479 32.08,44.271 44.271,62.062"
			/>
		</g>
        <g style="transform: translate(3px, -3px);">
			<path 
				fill="white"
				d="M70.576,0h-52.61c-1.821,0-3.297,1.477-3.297,3.297v81.947c0,1.82,1.476,3.297,3.297,3.297h52.609
				c1.82,0,3.297-1.477,3.297-3.297V3.297C73.873,1.477,72.397,0,70.576,0z M67.278,81.947H21.263V6.595h46.015V81.947z"
			/>
            <path
				fill="none"
				stroke="black"
    			stroke-width="0.2"
				d="M70.576,0h-52.61c-1.821,0-3.297,1.477-3.297,3.297v81.947c0,1.82,1.476,3.297,3.297,3.297h52.609
				c1.82,0,3.297-1.477,3.297-3.297V3.297C73.873,1.477,72.397,0,70.576,0z "
			/>
			<path
				fill="rgb(221, 81, 81)"
				d="M67.278,81.947H21.263V6.595h46.015V81.947z"
			/>
			<polygon
				fill="rgb(145, 75, 75)"
				points="56.462,44.271 44.271,26.479 32.08,44.271 44.271,62.062"
			/>
		</g>
        <g style="transform: translate(5px, -4px);">
			<path 
				fill="white"
				d="M70.576,0h-52.61c-1.821,0-3.297,1.477-3.297,3.297v81.947c0,1.82,1.476,3.297,3.297,3.297h52.609
				c1.82,0,3.297-1.477,3.297-3.297V3.297C73.873,1.477,72.397,0,70.576,0z M67.278,81.947H21.263V6.595h46.015V81.947z"
			/>
            <path
				fill="none"
				stroke="black"
    			stroke-width="0.2"
				d="M70.576,0h-52.61c-1.821,0-3.297,1.477-3.297,3.297v81.947c0,1.82,1.476,3.297,3.297,3.297h52.609
				c1.82,0,3.297-1.477,3.297-3.297V3.297C73.873,1.477,72.397,0,70.576,0z "
			/>
			<path
				fill="rgb(221, 81, 81)"
				d="M67.278,81.947H21.263V6.595h46.015V81.947z"
			/>
			<polygon
				fill="rgb(145, 75, 75)"
				points="56.462,44.271 44.271,26.479 32.08,44.271 44.271,62.062"
			/>
		</g>
        <g style="transform: translate(5px, -5px);">
			<path 
				fill="white"
				d="M70.576,0h-52.61c-1.821,0-3.297,1.477-3.297,3.297v81.947c0,1.82,1.476,3.297,3.297,3.297h52.609
				c1.82,0,3.297-1.477,3.297-3.297V3.297C73.873,1.477,72.397,0,70.576,0z M67.278,81.947H21.263V6.595h46.015V81.947z"
			/>
            <path
				fill="none"
				stroke="black"
    			stroke-width="0.2"
				d="M70.576,0h-52.61c-1.821,0-3.297,1.477-3.297,3.297v81.947c0,1.82,1.476,3.297,3.297,3.297h52.609
				c1.82,0,3.297-1.477,3.297-3.297V3.297C73.873,1.477,72.397,0,70.576,0z "
			/>
			<path
				fill="rgb(221, 81, 81)"
				d="M67.278,81.947H21.263V6.595h46.015V81.947z"
			/>
			<polygon
				fill="rgb(145, 75, 75)"
				points="56.462,44.271 44.271,26.479 32.08,44.271 44.271,62.062"
			/>
		</g>
	</g>
</svg>